<svg width="28" height="28" viewBox="0 0 28 28" fill="none" xmlns="http://www.w3.org/2000/svg">
<path fill-rule="evenodd" clip-rule="evenodd" d="M13.545 0.00401306C13.2072 0.00386047 12.8942 0.00372314 12.6032 0.00418091V0C9.48969 0.003479 8.89247 0.0243683 7.35138 0.0939636C5.72259 0.168793 4.83824 0.440262 4.24937 0.669968C3.46977 0.97345 2.91292 1.3354 2.32823 1.92009C1.74353 2.50479 1.38088 3.06165 1.07809 3.84123C0.849436 4.4301 0.577274 5.3141 0.502795 6.9429C0.422748 8.70395 0.406738 9.23018 0.406738 13.6913C0.406738 18.1523 0.422748 18.6814 0.502795 20.4424C0.576926 22.0712 0.849436 22.9552 1.07809 23.5434C1.38158 24.3233 1.74353 24.8788 2.32823 25.4635C2.91292 26.0482 3.46977 26.4101 4.24937 26.7129C4.83859 26.9416 5.72259 27.2137 7.35138 27.2889C9.11242 27.3689 9.64109 27.3863 14.1018 27.3863C18.5622 27.3863 19.0912 27.3689 20.8523 27.2889C22.4811 27.2144 23.3658 26.9429 23.9539 26.7132C24.7339 26.4104 25.289 26.0485 25.8737 25.4638C26.4584 24.8795 26.821 24.3243 27.1238 23.5448C27.3525 22.9566 27.6246 22.0726 27.6991 20.4438C27.7792 18.6827 27.7966 18.1537 27.7966 13.6954C27.7966 9.23714 27.7792 8.70813 27.6991 6.94708C27.625 5.31828 27.3525 4.43428 27.1238 3.84612C26.8203 3.06651 26.4584 2.50966 25.8737 1.92497C25.2893 1.34027 24.7335 0.978317 23.9539 0.675537C23.3651 0.446869 22.4811 0.174713 20.8523 0.100235C19.0909 0.0201874 18.5622 0.00418091 14.1018 0.00418091L13.545 0.00401306ZM21.0143 4.78143C21.0143 3.67433 21.9122 2.77747 23.0189 2.77747V2.77676C24.1257 2.77676 25.0236 3.67468 25.0236 4.78143C25.0236 5.88817 24.1257 6.7861 23.0189 6.7861C21.9122 6.7861 21.0143 5.88817 21.0143 4.78143ZM14.1017 5.12054C9.3639 5.12054 5.52267 8.96178 5.52267 13.6996C5.52267 18.4373 9.3639 22.2768 14.1017 22.2768C18.8394 22.2768 22.6793 18.4373 22.6793 13.6996C22.6793 8.96188 18.8393 5.12073 14.1017 5.12054ZM19.6701 13.7004C19.6701 10.6248 17.1768 8.13184 14.1016 8.13184C11.026 8.13184 8.53308 10.6248 8.53308 13.7004C8.53308 16.7756 11.026 19.2689 14.1016 19.2689C17.1768 19.2689 19.6701 16.7756 19.6701 13.7004Z" fill="#212B36"/>
<mask id="mask0" mask-type="alpha" maskUnits="userSpaceOnUse" x="0" y="0" width="28" height="28">
<path fill-rule="evenodd" clip-rule="evenodd" d="M13.545 0.00401306C13.2072 0.00386047 12.8942 0.00372314 12.6032 0.00418091V0C9.48969 0.003479 8.89247 0.0243683 7.35138 0.0939636C5.72259 0.168793 4.83824 0.440262 4.24937 0.669968C3.46977 0.97345 2.91292 1.3354 2.32823 1.92009C1.74353 2.50479 1.38088 3.06165 1.07809 3.84123C0.849436 4.4301 0.577274 5.3141 0.502795 6.9429C0.422748 8.70395 0.406738 9.23018 0.406738 13.6913C0.406738 18.1523 0.422748 18.6814 0.502795 20.4424C0.576926 22.0712 0.849436 22.9552 1.07809 23.5434C1.38158 24.3233 1.74353 24.8788 2.32823 25.4635C2.91292 26.0482 3.46977 26.4101 4.24937 26.7129C4.83859 26.9416 5.72259 27.2137 7.35138 27.2889C9.11242 27.3689 9.64109 27.3863 14.1018 27.3863C18.5622 27.3863 19.0912 27.3689 20.8523 27.2889C22.4811 27.2144 23.3658 26.9429 23.9539 26.7132C24.7339 26.4104 25.289 26.0485 25.8737 25.4638C26.4584 24.8795 26.821 24.3243 27.1238 23.5448C27.3525 22.9566 27.6246 22.0726 27.6991 20.4438C27.7792 18.6827 27.7966 18.1537 27.7966 13.6954C27.7966 9.23714 27.7792 8.70813 27.6991 6.94708C27.625 5.31828 27.3525 4.43428 27.1238 3.84612C26.8203 3.06651 26.4584 2.50966 25.8737 1.92497C25.2893 1.34027 24.7335 0.978317 23.9539 0.675537C23.3651 0.446869 22.4811 0.174713 20.8523 0.100235C19.0909 0.0201874 18.5622 0.00418091 14.1018 0.00418091L13.545 0.00401306ZM21.0143 4.78143C21.0143 3.67433 21.9122 2.77747 23.0189 2.77747V2.77676C24.1257 2.77676 25.0236 3.67468 25.0236 4.78143C25.0236 5.88817 24.1257 6.7861 23.0189 6.7861C21.9122 6.7861 21.0143 5.88817 21.0143 4.78143ZM14.1017 5.12054C9.3639 5.12054 5.52267 8.96178 5.52267 13.6996C5.52267 18.4373 9.3639 22.2768 14.1017 22.2768C18.8394 22.2768 22.6793 18.4373 22.6793 13.6996C22.6793 8.96188 18.8393 5.12073 14.1017 5.12054ZM19.6701 13.7004C19.6701 10.6248 17.1768 8.13184 14.1016 8.13184C11.026 8.13184 8.53308 10.6248 8.53308 13.7004C8.53308 16.7756 11.026 19.2689 14.1016 19.2689C17.1768 19.2689 19.6701 16.7756 19.6701 13.7004Z" fill="white"/>
</mask>
<g mask="url(#mask0)">
<rect x="-1.30518" y="-1.71191" width="30.8135" height="30.8135" rx="4" fill="#F5F6F6"/>
</g>
</svg>
