<svg width="29" height="23" viewBox="0 0 29 23" fill="none" xmlns="http://www.w3.org/2000/svg">
<path fill-rule="evenodd" clip-rule="evenodd" d="M13.9434 6.15693L14.0027 7.13595L13.0132 7.01607C9.4113 6.55653 6.26459 4.9981 3.59285 2.38073L2.28667 1.08204L1.95023 2.04107C1.23776 4.17892 1.69295 6.43665 3.17725 7.95513C3.96887 8.79428 3.79076 8.91416 2.4252 8.41466C1.95023 8.25482 1.53462 8.13494 1.49504 8.19488C1.35651 8.33474 1.83148 10.1529 2.2075 10.8722C2.72206 11.8712 3.77097 12.8502 4.91882 13.4296L5.88857 13.8892L4.74071 13.9091C3.63243 13.9091 3.59285 13.9291 3.71159 14.3487C4.10741 15.6474 5.67087 17.026 7.41245 17.6254L8.63947 18.045L7.57077 18.6843C5.98752 19.6034 4.1272 20.1229 2.26688 20.1629C1.3763 20.1828 0.644043 20.2628 0.644043 20.3227C0.644043 20.5225 3.0585 21.6414 4.46364 22.0809C8.67905 23.3796 13.6861 22.8202 17.4463 20.6024C20.118 19.024 22.7898 15.8872 24.0366 12.8502C24.7095 11.2318 25.3824 8.2748 25.3824 6.85623C25.3824 5.93715 25.4417 5.81728 26.55 4.71838C27.2031 4.07902 27.8166 3.37973 27.9354 3.17993C28.1333 2.80031 28.1135 2.80031 27.1041 3.13997C25.4219 3.73936 25.1845 3.65944 26.0157 2.76035C26.6292 2.12099 27.3614 0.962156 27.3614 0.622498C27.3614 0.562558 27.0646 0.662458 26.7281 0.842277C26.3719 1.04208 25.5803 1.34177 24.9865 1.52159L23.9179 1.86125L22.9481 1.20192C22.4138 0.842277 21.6617 0.442679 21.2659 0.322799C20.2566 0.0430804 18.7129 0.0830402 17.8025 0.402719C15.3287 1.30181 13.7652 3.61948 13.9434 6.15693Z" fill="#212B36"/>
<mask id="mask0" mask-type="alpha" maskUnits="userSpaceOnUse" x="0" y="0" width="29" height="23">
<path fill-rule="evenodd" clip-rule="evenodd" d="M13.9434 6.15693L14.0027 7.13595L13.0132 7.01607C9.4113 6.55653 6.26459 4.9981 3.59285 2.38073L2.28667 1.08204L1.95023 2.04107C1.23776 4.17892 1.69295 6.43665 3.17725 7.95513C3.96887 8.79428 3.79076 8.91416 2.4252 8.41466C1.95023 8.25482 1.53462 8.13494 1.49504 8.19488C1.35651 8.33474 1.83148 10.1529 2.2075 10.8722C2.72206 11.8712 3.77097 12.8502 4.91882 13.4296L5.88857 13.8892L4.74071 13.9091C3.63243 13.9091 3.59285 13.9291 3.71159 14.3487C4.10741 15.6474 5.67087 17.026 7.41245 17.6254L8.63947 18.045L7.57077 18.6843C5.98752 19.6034 4.1272 20.1229 2.26688 20.1629C1.3763 20.1828 0.644043 20.2628 0.644043 20.3227C0.644043 20.5225 3.0585 21.6414 4.46364 22.0809C8.67905 23.3796 13.6861 22.8202 17.4463 20.6024C20.118 19.024 22.7898 15.8872 24.0366 12.8502C24.7095 11.2318 25.3824 8.2748 25.3824 6.85623C25.3824 5.93715 25.4417 5.81728 26.55 4.71838C27.2031 4.07902 27.8166 3.37973 27.9354 3.17993C28.1333 2.80031 28.1135 2.80031 27.1041 3.13997C25.4219 3.73936 25.1845 3.65944 26.0157 2.76035C26.6292 2.12099 27.3614 0.962156 27.3614 0.622498C27.3614 0.562558 27.0646 0.662458 26.7281 0.842277C26.3719 1.04208 25.5803 1.34177 24.9865 1.52159L23.9179 1.86125L22.9481 1.20192C22.4138 0.842277 21.6617 0.442679 21.2659 0.322799C20.2566 0.0430804 18.7129 0.0830402 17.8025 0.402719C15.3287 1.30181 13.7652 3.61948 13.9434 6.15693Z" fill="white"/>
</mask>
<g mask="url(#mask0)">
<rect x="-1.06787" y="-3.28809" width="30.8135" height="30.8135" rx="4" fill="#F5F6F6"/>
</g>
</svg>
