<svg xmlns="http://www.w3.org/2000/svg" width="428.628" height="168.631" viewBox="0 0 428.628 168.631">
  <g id="g10" transform="translate(0 57.691)">
    <g id="g12" transform="translate(0 -57.691)">
      <path id="path14" d="M159.258-33.343a9.256,9.256,0,0,0-9.237-9.238,9.25,9.25,0,0,0-9.233,9.238,9.23,9.23,0,0,0,9.233,9.235A9.226,9.226,0,0,0,159.258-33.343Zm-9.237-10.642a10.655,10.655,0,0,1,10.64,10.642,10.652,10.652,0,0,1-10.64,10.637,10.657,10.657,0,0,1-10.675-10.637,10.66,10.66,0,0,1,10.675-10.642" transform="translate(267.967 84.048)" fill="#fff"/>
      <path id="path16" d="M148.465-38.967c0-1.364-1.13-1.988-2.966-1.988h-2.062v4.249H145.5C147.416-36.706,148.465-37.446,148.465-38.967Zm2.066,8.3h-1.949a5.344,5.344,0,0,1-.16-1.481c0-2.5-.772-3.156-2.923-3.156h-2.058v4.637h-1.867V-42.357h3.932c2.5,0,5.028.545,5.028,3.391,0,1.986-1.524,2.649-2.88,2.845,1.75.39,2.658,1.442,2.658,3.508a5.7,5.7,0,0,0,.218,1.949" transform="translate(272.252 87.177)" fill="#fff"/>
      <path id="path18" d="M171.271-3.462l30.561,47.431H170.218l-14.65-25.876L137.014,43.968H105.092l35.2-47.546-26.974-40.3h32.229l10.406,18.63L168-43.877h32.347L171.271-3.462" transform="translate(202.095 84.253)" fill="#fff"/>
      <path id="path20" d="M94.507-43.877h0Z" transform="translate(181.739 84.253)" fill="#fff"/>
      <path id="path22" d="M109.9-11.292A16.5,16.5,0,1,1,93.374,5.2,16.5,16.5,0,0,1,109.9-11.292" transform="translate(179.561 146.917)" fill="#fff"/>
      <path id="path24" d="M108.7-14.57c0-2.961-.776-5.143-2.342-6.743-3.116-3.116-9.119-3.547-13.6-3.585V-4.2C104.022-4.318,108.7-7.321,108.7-14.57Zm7.169,23.542,26.86,35H109.516L92.759,17.742V43.968H66.414V-43.877h34.528c10.249,0,18.551,2.885,24.005,8.341,4.872,4.872,7.331,11.458,7.331,19.642,0,12.082-6.356,21.434-16.413,24.867" transform="translate(127.716 84.253)" fill="#fff"/>
      <path id="path26" d="M107.583-43.877v22.956H87.553v64.89H61.325v-64.89H41.293V-43.877h66.29" transform="translate(79.407 84.253)" fill="#fff"/>
      <path id="path28" d="M56.194-43.877V43.968H29.853V-43.877H56.194" transform="translate(57.407 84.253)" fill="#fff"/>
      <path id="path30" d="M45.231-57.691a16.519,16.519,0,0,1,16.52,16.485,16.565,16.565,0,0,1-16.52,16.564A16.54,16.54,0,0,1,28.707-41.206,16.491,16.491,0,0,1,45.231-57.691" transform="translate(55.205 57.691)" fill="#fff"/>
      <path id="path32" d="M79.234-30.375,65.36-7.965A22.979,22.979,0,0,0,46.03-18.607c-11.075,0-19.175,9-19.175,20.073s8.1,20.039,19.175,20.039A22.976,22.976,0,0,0,65.36,10.864L79.234,33.312a45.858,45.858,0,0,1-33.2,14.151A46.005,46.005,0,0,1,0,1.471,46.074,46.074,0,0,1,46.03-44.6a45.747,45.747,0,0,1,33.2,14.221" transform="translate(0 82.872)" fill="#fff"/>
      <path id="path34" d="M120.861-43.878V43.967H94.519V-43.878h26.342" transform="translate(181.763 84.252)" fill="#fff"/>
    </g>
  </g>
</svg>
