<svg xmlns="http://www.w3.org/2000/svg" width="600.1" height="163.4" viewBox="0 0 600.1 163.4">
  <g id="icewarp-seeklogo.com" transform="translate(-21 -239)">
    <path id="Path_1" data-name="Path 1" d="M46.3,239V365.3H21V239Zm85.3,122.5c-4.9,2.3-14.5,4.9-26,4.9-28.6,0-47.3-18.5-47.3-46.9,0-27.5,18.8-49,51.1-49,8.5,0,17.1,1.9,22.4,4.3l-4.1,17.3a40.678,40.678,0,0,0-17.5-3.6c-17.7,0-28.3,13-28.1,29.8,0,18.8,12.3,29.6,28.1,29.6a45.449,45.449,0,0,0,18.3-3.6C128.4,344.4,131.6,361.5,131.6,361.5ZM159.7,325c.6,16.6,13.6,23.7,28.3,23.7,10.7,0,18.5-1.5,25.4-4.1l3.4,16a85.724,85.724,0,0,1-32,5.9c-29.8,0-47.3-18.5-47.3-46.5,0-25.4,15.5-49.4,44.8-49.4,30,0,39.6,24.5,39.6,44.6a54.386,54.386,0,0,1-.8,9.8ZM200,308.8c.2-8.5-3.6-22.4-19-22.4-14.3,0-20.3,13-21.3,22.4ZM427.9,365c.2-5.5.9-12.8,1.7-20.7H429c-9,16.9-21.1,22.8-32.8,22.8-16.4,0-27.1-12.8-27.1-31.3,0-31.3,21.9-64.6,64.6-64.6a99.921,99.921,0,0,1,27.7,4.1L452,323.2c-2.6,13.8-4.1,30.9-3.8,41.8Zm9-75.9a35.624,35.624,0,0,0-9-.9c-20.3,0-36,22.8-36,43.7,0,9.6,3.6,17.5,13.2,17.5,10.2,0,22.6-12.8,27-36.2C432,313.2,436.9,289.1,436.9,289.1ZM463.1,365l10.7-56.5c2.4-13,3.6-26.9,4.7-35.2h19c-.6,6.2-1.1,12.6-2.1,19.4h.6c6.2-12.4,16.2-21.5,28.8-21.5a37.258,37.258,0,0,1,4.7.4l-4.3,21.5a29.9,29.9,0,0,0-4.1-.4c-15.6,0-25.6,15.8-29.2,35.4l-7,36.9Zm56.6,37.3,17.9-94.9c2.1-10.9,4.1-25.2,5.3-34.5h19.8l-2.1,15.4h.4c7.9-10.9,19.2-17.1,31.1-17.1,19.8,0,29,16.2,29,34.1,0,32-22.2,61.8-53.5,61.8-8.5,0-14.9-1.9-18.3-3.9h-.4l-7.4,39.2C541.5,402.3,519.7,402.3,519.7,402.3Zm32.7-56.7c3.4,2.8,8.3,4.5,14.7,4.5,17,0,30.9-22.6,30.9-43.1,0-8.5-3.8-17.9-14.5-17.9-11.1,0-23.2,12.6-27.1,34.1Z" fill="#fff"/>
    <path id="Path_2" data-name="Path 2" d="M303.1,239.1c-7,0-14.4,5.7-16.5,12.6L247.9,365.4h9.8c7,0,14.4-5.6,16.5-12.6l39.3-113.7H303.1Zm59,0L317.5,365.4h9.7c7,0,14.4-5.6,16.5-12.6l43.6-113.7H362.1Zm-38.9,1.2-18,51v61.4a12.459,12.459,0,0,0,4,9.2l21.3-60.4V251.6A12.606,12.606,0,0,0,323.2,240.3ZM261,299.4V239.1H235.7V352.8a12.53,12.53,0,0,0,3.4,8.6C239.2,361.4,261,299.4,261,299.4Z" fill="#29abe2"/>
  </g>
</svg>
