<svg width="30" height="28" viewBox="0 0 30 28" fill="none" xmlns="http://www.w3.org/2000/svg">
<path fill-rule="evenodd" clip-rule="evenodd" d="M7.85341 3.24631C7.81282 1.40355 6.49506 0 4.35521 0C2.21536 0 0.816406 1.40355 0.816406 3.24631C0.816406 5.05089 2.17402 6.49484 4.27401 6.49484H4.31399C6.49506 6.49484 7.85341 5.05089 7.85341 3.24631ZM7.4413 9.05859H1.18616V27.8527H7.4413V9.05859ZM22.7981 8.61719C26.9143 8.61719 30.0001 11.3039 30.0001 17.0767L29.9999 27.8526H23.745V17.7978C23.745 15.2722 22.8398 13.5488 20.5755 13.5488C18.8473 13.5488 17.818 14.7106 17.3659 15.8328C17.2005 16.2349 17.1599 16.7952 17.1599 17.3569V27.8531H10.9041C10.9041 27.8531 10.9865 10.8226 10.9041 9.05901H17.1599V11.721C17.9902 10.4413 19.4771 8.61719 22.7981 8.61719Z" fill="black"/>
<mask id="mask0" mask-type="alpha" maskUnits="userSpaceOnUse" x="0" y="0" width="31" height="28">
<path fill-rule="evenodd" clip-rule="evenodd" d="M7.85341 3.24631C7.81282 1.40355 6.49506 0 4.35521 0C2.21536 0 0.816406 1.40355 0.816406 3.24631C0.816406 5.05089 2.17402 6.49484 4.27401 6.49484H4.31399C6.49506 6.49484 7.85341 5.05089 7.85341 3.24631ZM7.4413 9.05859H1.18616V27.8527H7.4413V9.05859ZM22.7981 8.61719C26.9143 8.61719 30.0001 11.3039 30.0001 17.0767L29.9999 27.8526H23.745V17.7978C23.745 15.2722 22.8398 13.5488 20.5755 13.5488C18.8473 13.5488 17.818 14.7106 17.3659 15.8328C17.2005 16.2349 17.1599 16.7952 17.1599 17.3569V27.8531H10.9041C10.9041 27.8531 10.9865 10.8226 10.9041 9.05901H17.1599V11.721C17.9902 10.4413 19.4771 8.61719 22.7981 8.61719Z" fill="white"/>
</mask>
<g mask="url(#mask0)">
<rect x="-1.00757" y="-1.82422" width="32.8314" height="32.8314" rx="4" fill="white"/>
</g>
</svg>
