<svg id="logo-original-docker" xmlns="http://www.w3.org/2000/svg" width="255.68" height="214.511" viewBox="0 0 255.68 214.511">
  <path id="Path_1" data-name="Path 1" d="M38.617,173.984V157.622a3.573,3.573,0,0,1,3.57-3.877H42.8a3.569,3.569,0,0,1,3.563,3.877v34.448c0,8.4-4.151,15.084-11.382,19.342A21.374,21.374,0,0,1,24.039,214.4H22.5c-8.4,0-15.078-4.153-19.342-11.381A21.314,21.314,0,0,1,.176,192.069v-1.535c0-8.4,4.153-15.083,11.379-19.348A21.3,21.3,0,0,1,22.5,168.2h1.537a21.625,21.625,0,0,1,14.578,5.784ZM7.924,191.3c0,6.068,2.941,10.63,8.258,13.539a14.327,14.327,0,0,0,6.937,1.809c5.956,0,10.373-2.81,13.421-7.857a14.536,14.536,0,0,0,2.077-7.648c0-5.26-2.49-9.365-6.729-12.414a14.46,14.46,0,0,0-8.618-2.775c-6.492,0-11.163,3.279-13.968,9.106a14.23,14.23,0,0,0-1.379,6.24Zm65.324-23.1h1.074c8.978,0,15.806,4.355,20.133,12.192a20.825,20.825,0,0,1,2.656,10.141v1.535c0,8.4-4.142,15.093-11.385,19.343A21.43,21.43,0,0,1,74.783,214.4H73.248c-8.4,0-15.079-4.153-19.342-11.381a21.316,21.316,0,0,1-2.986-10.946v-1.535c0-8.4,4.168-15.062,11.376-19.346A21.2,21.2,0,0,1,73.248,168.2ZM58.667,191.3c0,5.89,2.891,10.223,7.866,13.269a14.352,14.352,0,0,0,7.638,2.079c5.82,0,10.122-2.951,13.116-7.863a14.408,14.408,0,0,0,2.074-7.641c0-5.477-2.638-9.661-7.148-12.693a14.415,14.415,0,0,0-8.2-2.5c-6.492,0-11.163,3.279-13.966,9.106a14.2,14.2,0,0,0-1.381,6.24Zm70.657-14.727a14.512,14.512,0,0,0-4.625-.778c-6.474-.244-11.158,3.4-13.906,9.113a14.177,14.177,0,0,0-1.382,6.235c0,6.637,3.484,11.284,9.409,14.116a17.652,17.652,0,0,0,7.323,1.231c2.081,0,5.02-1.275,6.866-2.152l.32-.152h1.432l.158.032c1.763.366,3.093,1.484,3.093,3.38v.767c0,4.717-8.622,5.8-11.912,6.027-11.61.8-20.293-5.573-23.6-16.647a20.052,20.052,0,0,1-.834-5.837v-1.533c0-8.4,4.169-15.058,11.376-19.34a21.212,21.212,0,0,1,10.951-2.99h1.535a19.729,19.729,0,0,1,11.344,3.5l.281.194.177.292a4.083,4.083,0,0,1,.685,2.043v.767c0,1.978-1.48,3.041-3.266,3.386l-.148.026h-.458c-1.157,0-3.785-1.2-4.817-1.683Zm25.134,5.247c3.009-3.014,6.03-6.022,9.085-8.986.852-.826,4.075-4.326,5.343-4.326h1.388l.158.032a3.436,3.436,0,0,1,3.092,3.386v.766c0,1.3-1.518,2.8-2.355,3.688-1.78,1.887-3.655,3.713-5.477,5.561l-9.361,9.5q6.046,6.06,12.056,12.155c1.106,1.126,2.212,2.253,3.3,3.4a8.458,8.458,0,0,1,1.276,1.471,3.173,3.173,0,0,1,.56,1.751v.8l-.045.184c-.435,1.767-1.557,3.194-3.517,3.194h-.616c-1.282,0-2.73-1.451-3.609-2.279-1.809-1.706-3.557-3.5-5.33-5.243l-5.949-5.84v9.334a3.574,3.574,0,0,1-3.569,3.877h-.611a3.573,3.573,0,0,1-3.569-3.877v-52.6a3.567,3.567,0,0,1,3.569-3.871h.611a3.567,3.567,0,0,1,3.569,3.871V181.82Zm96.577-13.313h.769a3.67,3.67,0,0,1,3.875,3.876c0,3.208-3.067,4.029-5.72,4.029-3.48,0-6.8,2.107-9.2,4.47a14.75,14.75,0,0,0-4.3,10.878V210.52a3.57,3.57,0,0,1-3.57,3.876h-.611a3.57,3.57,0,0,1-3.569-3.876V190.684c0-7.617,3.708-13.835,9.889-18.2a21.312,21.312,0,0,1,12.439-3.981ZM195.96,205.683a18.138,18.138,0,0,0,8.928.34c1.479-.629,5.264-2.279,6.656-2.038l.217.036.2.1a4.368,4.368,0,0,1,2.095,1.859,3.712,3.712,0,0,1-1.465,5.216l-.663.383c-7.351,4.243-15.168,3.655-22.495-.308a20.851,20.851,0,0,1-8.16-8.131l-.463-.8c-4.718-8.172-4.082-16.768,1.24-24.539a21.209,21.209,0,0,1,7.046-6.384l1.062-.613c6.922-4,14.341-3.723,21.45-.215a20.988,20.988,0,0,1,9.054,8.394l.383.666c1.55,2.686-.458,5.027-2.531,6.627-2.406,1.856-4.835,4.09-7.141,6.08q-7.712,6.657-15.414,13.33Zm-6.655-4.674q8.626-7.4,17.237-14.816c1.96-1.69,4.109-3.444,6.053-5.222a15.32,15.32,0,0,0-6.381-4.228,14.625,14.625,0,0,0-12.975,1.235c-5.366,3.1-7.651,8.031-7.45,14.171a13.585,13.585,0,0,0,2.013,6.8,18.058,18.058,0,0,0,1.5,2.055Z" fill="#364548" fill-rule="evenodd"/>
  <path id="Path_2" data-name="Path 2" d="M147.488,45.732h22.866V69.107h11.562A50.139,50.139,0,0,0,197.8,66.443a40.69,40.69,0,0,0,7.724-3.489,28.676,28.676,0,0,1-5.361-14.781c-.659-7.134.78-16.42,5.609-22l2.4-2.78,2.864,2.3c7.211,5.794,13.276,13.889,14.345,23.118,8.683-2.554,18.878-1.95,26.531,2.467l3.14,1.812-1.653,3.226c-6.473,12.633-20,16.546-33.235,15.854-19.8,49.308-62.9,72.653-115.157,72.653-27,0-51.77-10.093-65.876-34.047l-.231-.391L36.852,106.2a66.315,66.315,0,0,1-5.277-33.637l.322-3.457H51.45V45.732H74.315V22.866h45.733V0h27.44V45.732" fill="#364548" fill-rule="evenodd"/>
  <path id="Path_3" data-name="Path 3" d="M221.57,54.38c1.533-11.915-7.384-21.275-12.914-25.718-6.373,7.368-7.363,26.678,2.635,34.807-5.58,4.956-17.337,9.448-29.376,9.448H35.37a61.754,61.754,0,0,0,6.074,34.045l1.667,3.049a56.537,56.537,0,0,0,3.455,5.185h0q9.037.58,16.661.408h0c9.987-.221,18.136-1.4,24.312-3.54a1.76,1.76,0,1,1,1.153,3.326c-.821.284-1.677.551-2.562.8h0a76.491,76.491,0,0,1-16.805,2.738c.4.006-.416.06-.418.061-.229.014-.517.047-.747.059-2.648.148-5.506.179-8.428.179-3.2,0-6.343-.061-9.862-.239l-.09.059c12.21,13.724,31.3,21.955,55.233,21.955,50.648,0,93.609-22.452,112.632-72.858,13.5,1.385,26.468-2.057,32.368-13.574-9.4-5.424-21.484-3.694-28.443-.2" fill="#494949" fill-rule="evenodd"/>
  <path id="Path_4" data-name="Path 4" d="M221.57,54.38c1.533-11.915-7.384-21.275-12.914-25.718-6.373,7.368-7.363,26.678,2.635,34.807-5.58,4.956-17.337,9.448-29.376,9.448H44.048c-.6,19.246,6.544,33.855,19.181,42.687h0c9.987-.221,18.136-1.4,24.312-3.54a1.76,1.76,0,1,1,1.153,3.326c-.821.284-1.677.551-2.562.8h0a80.425,80.425,0,0,1-17.254,2.858s-.163-.156-.165-.155c17.237,8.842,42.23,8.81,70.885-2.2,32.131-12.343,62.029-35.86,82.89-62.757q-.472.213-.917.436" fill="#7e8d91" fill-rule="evenodd"/>
  <path id="Path_5" data-name="Path 5" d="M35.645,88.186a58.6,58.6,0,0,0,5.8,18.776l1.667,3.049a56.433,56.433,0,0,0,3.455,5.185q9.038.58,16.664.408c9.987-.221,18.136-1.4,24.312-3.54a1.76,1.76,0,1,1,1.153,3.326c-.821.284-1.677.551-2.562.8h0a80.423,80.423,0,0,1-17.224,2.8c-.231.014-.634.017-.867.029-2.647.149-5.476.239-8.4.239-3.2,0-6.463-.061-9.981-.239,12.21,13.724,31.421,21.985,55.352,21.985,43.36,0,81.084-16.458,102.979-52.822H35.645" fill="#494949" fill-rule="evenodd"/>
  <path id="Path_6" data-name="Path 6" d="M45.367,88.186c2.592,11.819,8.821,21.1,17.864,27.418,9.987-.221,18.136-1.4,24.312-3.54a1.76,1.76,0,1,1,1.153,3.326c-.821.284-1.677.551-2.562.8h0a81.634,81.634,0,0,1-17.343,2.8c17.236,8.84,42.157,8.713,70.81-2.293a187.16,187.16,0,0,0,48.984-28.515H45.367" fill="#97acb2" fill-rule="evenodd"/>
  <path id="Path_7" data-name="Path 7" d="M55.261,49.543H75.078V69.361H55.261Zm1.651,1.652h1.564V67.71H56.911Zm2.94,0h1.627V67.71H59.852Zm3,0H64.48V67.71H62.853Zm3,0h1.627V67.71H65.857Zm3,0h1.627V67.71H68.86Zm3,0h1.565V67.71H71.862Z" fill="#7e8d91" fill-rule="evenodd"/>
  <path id="Path_8" data-name="Path 8" d="M78.126,26.677H97.945V46.494H78.126Zm1.653,1.652h1.563V44.843H79.778Zm2.94,0h1.625V44.843H82.719Zm3,0h1.627V44.843H85.72Zm3,0h1.627V44.843H88.723Zm3,0h1.627V44.843H91.726Zm3,0h1.566V44.843H94.728Z" fill="#7e8d91" fill-rule="evenodd"/>
  <path id="Path_9" data-name="Path 9" d="M78.126,49.543H97.945V69.361H78.126Zm1.653,1.652h1.563V67.71H79.778Zm2.94,0h1.625V67.71H82.719Zm3,0h1.627V67.71H85.72Zm3,0h1.627V67.71H88.723Zm3,0h1.627V67.71H91.726Zm3,0h1.566V67.71H94.728Z" fill="#7e8d91" fill-rule="evenodd"/>
  <path id="Path_10" data-name="Path 10" d="M100.993,49.543h19.818V69.361H100.993Zm1.652,1.652h1.563V67.71h-1.563Zm2.94,0h1.627V67.71h-1.627Zm3,0h1.627V67.71h-1.627Zm3,0h1.627V67.71H111.59Zm3,0h1.628V67.71h-1.628Zm3,0h1.564V67.71H117.6Z" fill="#7e8d91" fill-rule="evenodd"/>
  <path id="Path_11" data-name="Path 11" d="M100.993,26.677h19.818V46.494H100.993Zm1.652,1.652h1.563V44.843h-1.563Zm2.94,0h1.627V44.843h-1.627Zm3,0h1.627V44.843h-1.627Zm3,0h1.627V44.843H111.59Zm3,0h1.628V44.843h-1.628Zm3,0h1.564V44.843H117.6Z" fill="#7e8d91" fill-rule="evenodd"/>
  <path id="Path_12" data-name="Path 12" d="M123.859,49.543h19.817V69.361H123.859Zm1.652,1.652h1.563V67.71h-1.563Zm2.94,0h1.627V67.71h-1.627Zm3,0h1.627V67.71h-1.627Zm3,0h1.627V67.71h-1.627Zm3,0h1.627V67.71h-1.627Zm3,0h1.564V67.71h-1.564Z" fill="#7e8d91" fill-rule="evenodd"/>
  <path id="Path_13" data-name="Path 13" d="M123.859,26.677h19.817V46.494H123.859Zm1.652,1.652h1.563V44.843h-1.563Zm2.94,0h1.627V44.843h-1.627Zm3,0h1.627V44.843h-1.627Zm3,0h1.627V44.843h-1.627Zm3,0h1.627V44.843h-1.627Zm3,0h1.564V44.843h-1.564Z" fill="#7e8d91" fill-rule="evenodd"/>
  <path id="Path_14" data-name="Path 14" d="M123.859,3.811h19.817V23.629H123.859Zm1.652,1.651h1.563V21.977h-1.563Zm2.94,0h1.627V21.977h-1.627Zm3,0h1.627V21.977h-1.627Zm3,0h1.627V21.977h-1.627Zm3,0h1.627V21.977h-1.627Zm3,0h1.564V21.977h-1.564Z" fill="#7e8d91" fill-rule="evenodd"/>
  <path id="Path_15" data-name="Path 15" d="M146.725,49.543h19.818V69.361H146.725Zm1.651,1.652h1.565V67.71h-1.565Zm2.94,0h1.627V67.71h-1.627Zm3,0h1.627V67.71h-1.627Zm3,0h1.627V67.71h-1.627Zm3,0h1.626V67.71h-1.626Zm3,0h1.564V67.71h-1.564Z" fill="#7e8d91" fill-rule="evenodd"/>
  <path id="Path_16" data-name="Path 16" d="M96.7,101.492a5.467,5.467,0,1,1-5.468,5.468,5.468,5.468,0,0,1,5.468-5.468" fill="#d3ecec" fill-rule="evenodd"/>
  <path id="Path_17" data-name="Path 17" d="M96.7,103.043a3.907,3.907,0,0,1,1.418.265,1.6,1.6,0,1,0,2.2,2.149,3.916,3.916,0,1,1-3.617-2.414" fill="#364548" fill-rule="evenodd"/>
  <path id="Path_18" data-name="Path 18" d="M0,90.162H254.327c-5.538-1.4-17.521-3.3-15.545-10.56-10.069,11.652-34.353,8.174-40.481,2.429-6.825,9.9-46.555,6.136-49.326-1.575-8.556,10.041-35.067,10.041-43.623,0-2.772,7.711-42.5,11.473-49.327,1.575-6.128,5.746-30.41,9.223-40.48-2.429C17.522,86.86,5.539,88.758,0,90.162" fill="#364548" fill-rule="evenodd"/>
  <path id="Path_19" data-name="Path 19" d="M111.237,140.89C97.7,134.465,90.266,125.731,86.131,116.2a83.821,83.821,0,0,1-18.1,2.747q-3.969.223-8.351.224-5.051,0-10.642-.3c12.417,12.409,27.692,21.964,55.975,22.138q3.132,0,6.224-.118" fill="#bdd9d7" fill-rule="evenodd"/>
  <path id="Path_20" data-name="Path 20" d="M91.16,124.994a47.421,47.421,0,0,1-5.026-8.8,83.815,83.815,0,0,1-18.1,2.749c4.825,2.619,11.727,5.047,23.129,6.051" fill="#d3ecec" fill-rule="evenodd"/>
</svg>
