<svg xmlns="http://www.w3.org/2000/svg" width="224.601" height="201.264" viewBox="0 0 224.601 201.264">
  <path id="path9" d="M169.414,187.339c-26.457,15.283-62.834,16.854-99.432,1.168A155.5,155.5,0,0,1,0,128.615c7.566,6.3,16.392,11.349,25.849,15.759,37.8,17.715,75.583,16.5,102.176.045a.284.284,0,0,1-.04-.045c-37.828-29-69.982-66.83-93.939-97.72C29,41.61,25.217,35.305,21.435,29.631c29,26.479,75.028,59.892,91.416,69.353-34.671-36.57-65.566-81.961-64.308-80.7,54.852,55.481,105.923,87.006,105.923,87.006,1.689.952,2.993,1.746,4.042,2.455a82.951,82.951,0,0,0,2.891-8.758C170.226,66.83,160.141,30.261,138.072,0,189.137,30.893,219.4,88.894,206.79,137.442q-.493,1.964-1.071,3.872.221.264.442.544c25.215,31.525,18.282,64.937,15.13,58.633-13.679-26.768-39-18.583-51.876-13.152Z" transform="translate(0 0)" fill="#7e8d91"/>
</svg>
