<svg xmlns="http://www.w3.org/2000/svg" width="192.228" height="171.966" viewBox="0 0 192.228 171.966">
  <path id="logo-react" d="M96.111,69.087a16.719,16.719,0,1,1-16.716,16.9,16.788,16.788,0,0,1,16.716-16.9ZM54.72,157.509c5.628,3.4,17.972-1.79,32.183-15.2a216.581,216.581,0,0,1-13.5-16.993,202.969,202.969,0,0,1-21.461-3.214C47.386,141.238,49.086,154.38,54.72,157.509Zm6.343-51.32-2.589-4.565a70.754,70.754,0,0,0-2.595,7.694c2.415.541,5.1.985,7.869,1.43ZM119.537,99.4l7.244-13.413L119.537,72.57c-2.679-4.739-5.544-8.938-8.133-13.142-4.829-.27-9.923-.27-15.293-.27s-10.457,0-15.287.27c-2.595,4.2-5.454,8.409-8.133,13.142L65.448,85.983,72.691,99.4c2.679,4.739,5.538,8.938,8.133,13.142q7.638.343,15.287.27c5.37,0,10.463,0,15.293-.27C113.993,108.334,116.858,104.129,119.537,99.4ZM96.111,39.312c-1.694,1.964-3.484,4.024-5.274,6.439h10.554C99.6,43.336,97.811,41.276,96.111,39.312Zm0,93.342c1.7-1.964,3.484-4.024,5.28-6.439H90.837C92.627,128.63,94.417,130.69,96.111,132.654Zm41.307-118.2c-5.544-3.4-17.882,1.79-32.093,15.2a216.092,216.092,0,0,1,13.5,16.993,203.5,203.5,0,0,1,21.461,3.214C144.842,30.729,143.143,17.586,137.418,14.457Zm-6.259,51.32,2.595,4.565a70.756,70.756,0,0,0,2.595-7.694c-2.415-.541-5.1-.985-7.869-1.43l2.679,4.559ZM144.128,2.744c13.142,7.508,14.572,27.27,9.028,50.335,22.7,6.709,39.073,17.791,39.073,32.9s-16.362,26.195-39.073,32.9c5.544,23.065,4.115,42.827-9.028,50.335-13.058,7.508-30.85-1.075-48.017-17.437-17.167,16.362-34.958,24.945-48.1,17.437-13.052-7.508-14.482-27.27-8.938-50.335C16.362,112.178,0,101.09,0,85.983s16.362-26.195,39.073-32.9c-5.544-23.065-4.114-42.827,8.938-50.335,13.142-7.508,30.934,1.075,48.1,17.437C113.284,3.819,131.069-4.764,144.128,2.744Zm-2.595,83.239a201.293,201.293,0,0,1,7.959,20.206c18.777-5.634,29.324-13.677,29.324-20.206s-10.548-14.572-29.324-20.206a201.3,201.3,0,0,1-7.959,20.206Zm-90.837,0a201.3,201.3,0,0,1-7.959-20.206C23.96,71.411,13.413,79.454,13.413,85.983s10.548,14.572,29.324,20.206A201.3,201.3,0,0,1,50.7,85.983Zm80.464,20.206-2.679,4.565c2.769-.451,5.454-.9,7.869-1.436a70.233,70.233,0,0,0-2.595-7.688l-2.595,4.559Zm-25.834,36.124c14.212,13.407,26.549,18.6,32.093,15.2,5.724-3.123,7.424-16.272,2.865-35.4a202.969,202.969,0,0,1-21.461,3.214,216.583,216.583,0,0,1-13.5,16.993ZM61.063,65.771c.9-1.52,1.79-3.039,2.685-4.565-2.769.45-5.454.9-7.869,1.436a70.233,70.233,0,0,0,2.595,7.688l2.589-4.559ZM86.9,29.647c-14.212-13.407-26.549-18.6-32.183-15.2-5.634,3.123-7.328,16.272-2.775,35.4A202.959,202.959,0,0,1,73.406,46.64,216.584,216.584,0,0,1,86.9,29.647Z" transform="translate(0 0)" fill="#494949"/>
</svg>
