<?xml version="1.0" encoding="UTF-8" standalone="no"?>
<!DOCTYPE svg PUBLIC "-//W3C//DTD SVG 1.1//EN" "http://www.w3.org/Graphics/SVG/1.1/DTD/svg11.dtd">
<svg width="100%" height="100%" viewBox="0 0 196 42" version="1.1" xmlns="http://www.w3.org/2000/svg" xmlns:xlink="http://www.w3.org/1999/xlink" xml:space="preserve" style="fill-rule:evenodd;clip-rule:evenodd;stroke-linejoin:round;stroke-miterlimit:1.41421;">
    <g>
        <path d="M27.2,17.7L27.2,12.2L0,12.1L0,12.4C1,12.6 1.3,13.4 1.3,14.3L1.3,39.6L8.7,39.6L8.7,29L24,29L24,23.5L8.7,23.5L8.7,17.6L27.2,17.6L27.2,17.7Z" style="fill:white;fill-rule:nonzero;"/>
        <path d="M29.6,12.4C30.6,12.6 30.9,13.4 30.9,14.3L30.9,39.6L38.3,39.6L38.3,12.1L29.6,12.1L29.6,12.4Z" style="fill:white;fill-rule:nonzero;"/>
        <path d="M123.9,12.1L123.9,23L110.1,23L110.1,12.1L101.4,12.1L101.4,12.4C102.4,12.6 102.7,13.4 102.7,14.3L102.7,39.6L110.1,39.6L110.1,28.6L123.9,28.6L123.9,39.7L131.3,39.7L131.3,12.1L123.9,12.1Z" style="fill:white;fill-rule:nonzero;"/>
        <path d="M162.1,34.3L143.7,34.3L143.7,28.5L158.6,28.5L158.6,23.1L143.7,23.1L143.7,17.5L161.8,17.5L161.8,12.1L135,12.1L135,12.4C136,12.6 136.3,13.4 136.3,14.3L136.3,39.6L162.1,39.6L162.1,34.3Z" style="fill:white;fill-rule:nonzero;"/>
        <path d="M187,29.9C191.3,28.6 194.3,25.8 194.3,21.4L194.3,21.3C194.3,18.7 193.3,16.5 191.4,15C189.2,13.2 185.8,12.2 181.5,12.2L164.7,12.2L164.7,12.5C165.7,12.7 166,13.5 166,14.4L166,39.7L173.4,39.7L173.4,30.9L179.3,30.9L186.6,39.7L195.3,39.7L187,29.9ZM186.7,21.6C186.7,23.9 184.6,25.5 181,25.5L173.4,25.5L173.4,17.6L180.8,17.6C184.5,17.6 186.7,19 186.7,21.6Z" style="fill:white;fill-rule:nonzero;"/>
        <path d="M95.5,31.3L99.8,35.4C96.5,38.3 92.8,40.1 86.7,40.1C77.1,40.1 70,33.8 70,25.9L70,25.8C70,18 77,11.6 87,11.6C92,11.6 95.5,12.8 98.1,14.6C98.6,14.9 99.2,15 99.9,14.5L100.1,14.7L95.3,20.4C92.8,18.5 90.2,17.3 87,17.3C81.5,17.3 77.5,21.2 77.5,25.9L77.5,26C77.5,30.7 81.4,34.7 87,34.7C90.6,34.6 92.9,33.3 95.5,31.3ZM95.5,31.3L99.8,35.4C96.5,38.3 92.8,40.1 86.7,40.1" style="fill:white;fill-rule:nonzero;"/>
        <path d="M57.1,23.2C51.2,22 49.7,21.4 49.7,19.5L49.7,19.4C49.7,18.1 51.2,17 54.1,17C57,17 60,18 63,19.7L67.5,14.3L67.3,14.1C66.6,14.6 66.1,14.5 65.5,14.2C62.3,12.5 58.5,11.5 54.2,11.5C47.2,11.5 42.2,14.8 42.2,19.9L42.2,20C42.2,25.5 46.6,27.1 53.5,28.5C59.2,29.7 60.4,30.5 60.4,32L60.4,32.1C60.4,33.7 58.5,34.7 55.5,34.7C51.6,34.7 48.4,33.4 45.3,31.3L40.9,35.6C45,38.6 50.2,40 55.4,40C62.8,40 68,36.9 68,31.4L68,31.3C68,26.7 64.1,24.6 57.1,23.2Z" style="fill:white;fill-rule:nonzero;"/>
    </g>
</svg>
