<svg xmlns="http://www.w3.org/2000/svg" width="498.052" height="132.558" viewBox="0 0 498.052 132.558">
  <g id="g10" transform="translate(0 132.558)">
    <g id="g12">
      <path id="path14" d="M0,0H498.052V-132.558H0V0" fill="#fff"/>
      <path id="path16" d="M34.781-97.216c1.786-10.115,7.855-12.138,12.734-12.138,9.639,0,11.78,5.593,16.657,20.824l9.4,29.154h.238l9.4-29.154c4.88-15.231,7.022-20.824,16.659-20.824,4.879,0,10.948,2.023,12.734,12.138l7.616,43.551c1.546,8.807,3.213,18.445,3.213,21.3a9.119,9.119,0,0,1-9.044,9.166c-8.685,0-10.233-6.189-11.184-12.733l-5.711-37.6h-.239L84.284-31.889c-1.9,6.187-4.76,8.687-10.592,8.687S65.007-25.7,63.1-31.889L50.133-73.536h-.238l-5.711,37.6C43.231-29.391,41.684-23.2,33-23.2a9.12,9.12,0,0,1-9.044-9.166c0-2.853,1.667-12.491,3.214-21.3l7.615-43.551" fill="#fff"/>
      <path id="path18" d="M164.721-89.125h-.239L154.13-58.068h20.228Zm-16.66-3.927c3.452-9.4,6.425-17.493,16.064-17.493,9.875,0,12.851,8.093,16.3,17.493l18.564,50.1c2.5,6.783,2.855,9.043,2.855,11.9,0,4.76-3.807,7.854-9.281,7.854-6.307,0-8.329-4.048-10.115-9.4l-2.379-7.615H148.417l-2.38,7.615c-1.784,5.353-3.808,9.4-10.115,9.4-5.472,0-9.279-3.094-9.279-7.854,0-2.857.356-5.117,2.855-11.9l18.563-50.1" fill="#fff"/>
      <path id="path20" d="M206.246-99.12c0-6.783,4.045-10.234,9.639-10.234s9.639,3.451,9.639,10.234v57.355h20.708c6.069,0,9.636,3.332,9.636,8.924,0,5.353-3.567,8.925-9.636,8.925H215.885a9.3,9.3,0,0,1-9.639-9.638V-99.12" fill="#fff"/>
      <path id="path22" d="M259.437-99.12c0-6.783,4.044-10.234,9.637-10.234s9.64,3.451,9.64,10.234v57.355h20.705c6.067,0,9.637,3.332,9.637,8.924,0,5.353-3.571,8.925-9.637,8.925H269.074a9.3,9.3,0,0,1-9.637-9.638V-99.12" fill="#fff"/>
      <path id="path24" d="M327.022-42.717a10.514,10.514,0,0,1,10.351,10.35,10.434,10.434,0,0,1-10.351,10.354A10.436,10.436,0,0,1,316.67-32.367a10.515,10.515,0,0,1,10.352-10.35" fill="#fff"/>
      <path id="path26" d="M379.923-110.544c11.661,0,25.584,3.332,25.584,13.446,0,4.641-3.332,9.163-8.328,9.163-4.524,0-9.281-4.046-16.779-4.046-15.587,0-21.776,12.614-21.776,25.7,0,13.446,6.9,24.988,20.111,24.988,12.017,0,13.92-3.926,18.92-3.926,7.613,0,8.567,6.424,8.567,8.924,0,10.59-16.064,14.279-26.653,14.279-26.655,0-41.651-19.99-41.651-44.265,0-25.7,16.543-44.266,42.005-44.266" fill="#fff"/>
      <path id="path28" d="M464.048-41.765c6.665,0,10.236,3.57,10.236,8.924s-3.571,8.925-10.236,8.925H421.332c-10.353,0-13.567-4.282-13.567-10.59,0-3.332,1.308-5.356,3.571-8.449L447.748-91.5h-28.44c-6.664,0-10.235-3.57-10.235-8.568s3.571-8.568,10.235-8.568h41.409c10.235,0,11.781,6.307,11.781,9.639,0,4.046-3.572,8.926-9.044,16.183L432.636-41.765h31.412" fill="#fff"/>
    </g>
  </g>
</svg>
