<svg xmlns="http://www.w3.org/2000/svg" width="63.721" height="63.66" viewBox="0 0 63.721 63.66">
  <path id="springio-icon" d="M58.2,3.365a29.5,29.5,0,0,1-3.419,6.064A32.092,32.092,0,1,0,9.963,55.374l1.188,1.045a32.08,32.08,0,0,0,52.67-22.253C64.7,26,62.3,15.656,58.2,3.366ZM14.53,55.558a2.744,2.744,0,1,1-.4-3.857,2.744,2.744,0,0,1,.4,3.857Zm43.538-9.61c-7.92,10.55-24.83,6.99-35.672,7.5,0,0-1.922.113-3.857.43,0,0,.73-.31,1.663-.663,7.614-2.65,11.213-3.16,15.838-5.54,8.708-4.427,17.322-14.122,19.112-24.2-3.313,9.695-13.373,18.032-22.53,21.418-6.276,2.313-17.614,4.566-17.614,4.566l-.457-.245C6.837,45.466,6.6,28.759,20.628,23.371c6.143-2.366,12.02-1.067,18.654-2.65,7.084-1.683,15.28-6.99,18.615-13.916,3.73,11.08,8.224,28.422.166,39.15Z" transform="translate(-0.279 -0.307)" fill="#494949"/>
</svg>
