<svg width="90" height="90" viewBox="0 0 90 90" fill="none" xmlns="http://www.w3.org/2000/svg">
<path d="M12.8773 26.4162L12.6254 26.5602V26.8504V70.9236L6.125 67.2098V22.7901L44.9967 0.575876L83.875 22.7902V67.2098L44.9968 89.4241L21.1257 75.779V31.4942L44.9967 17.8536L68.8754 31.4942V58.5012L44.9968 72.1463L36.1254 67.075V40.2006L44.9968 35.1281L51.5478 38.87L42.8776 43.8268L42.6257 43.9707V44.2608V63.0147V63.3049L42.8777 63.4489L44.7487 64.5176L44.9967 64.6593L45.2447 64.5176L62.123 54.8751L62.375 54.7312V54.441V35.5544V35.2642L62.123 35.1202L45.2447 25.4791L44.9967 25.3374L44.7486 25.4791L27.8769 35.1203L27.625 35.2642V35.5544V71.7188V72.0089L27.8769 72.1529L44.7486 81.7953L44.9967 81.9371L45.2448 81.7954L77.1238 63.5805L77.3757 63.4365V63.1463V26.8504V26.5602L77.1237 26.4162L45.2447 8.20462L44.9967 8.06292L44.7486 8.20465L12.8773 26.4162Z" stroke="url(#paint0_linear)"/>
<defs>
<linearGradient id="paint0_linear" x1="45" y1="0" x2="45" y2="90" gradientUnits="userSpaceOnUse">
<stop stop-color="#FFC700"/>
<stop offset="1" stop-color="#FE8900"/>
</linearGradient>
</defs>
</svg>
