<svg width="90" height="90" viewBox="0 0 90 90" fill="none" xmlns="http://www.w3.org/2000/svg">
<g clip-path="url(#clip0)">
<path d="M53.0004 37.4996V36.9996H52.5004H23V0.5H89.5V67H53.0004V37.4996ZM82.4996 60.4996H82.9996V59.9996V7.50037V7.00037H82.4996H30.0004H29.5004V7.50037V30.0004V30.5004H30.0004H59.4996V59.9996V60.4996H59.9996H82.4996Z" stroke="url(#paint0_linear)"/>
<path d="M37.4996 82.9996H37.9996V82.4996V52.5004V52.0004H37.4996H7.50037H7.00037V52.5004V82.4996V82.9996H7.50037H37.4996ZM44.5 89.5H0.5V45.5H44.5V89.5Z" stroke="url(#paint1_linear)"/>
</g>
<defs>
<linearGradient id="paint0_linear" x1="56.25" y1="0" x2="56.25" y2="67.5" gradientUnits="userSpaceOnUse">
<stop stop-color="#12F194"/>
<stop offset="1" stop-color="#12F1C9"/>
</linearGradient>
<linearGradient id="paint1_linear" x1="22.5" y1="45" x2="22.5" y2="90" gradientUnits="userSpaceOnUse">
<stop stop-color="#12F194"/>
<stop offset="1" stop-color="#12F1C9"/>
</linearGradient>
<clipPath id="clip0">
<rect width="90" height="90" fill="white"/>
</clipPath>
</defs>
</svg>
