<svg xmlns="http://www.w3.org/2000/svg" width="300" height="300" viewBox="0 0 300 300">
  <g id="Group_2" data-name="Group 2" transform="translate(-810 -390)">
    <g id="Rectangle_1" data-name="Rectangle 1" transform="translate(810 390)" fill="#202d3c" stroke="#707070" stroke-width="1">
      <rect width="300" height="300" rx="26" stroke="none"/>
      <rect x="0.5" y="0.5" width="299" height="299" rx="25.5" fill="none"/>
    </g>
    <g id="logo-proper" transform="translate(859.5 431.041)">
      <g id="Group_1" data-name="Group 1">
        <path id="Path_1" data-name="Path 1" d="M52.5,91.5V93A33.5,33.5,0,0,0,86,126.5h63.5V125A33.5,33.5,0,0,0,116,91.5Zm63.5-3A36.5,36.5,0,0,1,152.5,125v4.5H86A36.5,36.5,0,0,1,49.5,93V88.5Z" fill="#fff"/>
        <path id="Path_2" data-name="Path 2" d="M105.5,52.5H82.65A30.15,30.15,0,0,0,52.5,82.65V88.5h53Zm3-3v42h-59V82.65A33.15,33.15,0,0,1,82.65,49.5Zm-12,116h22.85a30.15,30.15,0,0,0,30.15-30.15V129.5h-53Zm56-39v8.85a33.15,33.15,0,0,1-33.15,33.15H93.5v-42Z" fill="#fff"/>
      </g>
      <path id="Path_3" data-name="Path 3" d="M35.717,41.6a6.884,6.884,0,0,0,4.456-1.932,6.594,6.594,0,0,0,2.4-4.068,4.693,4.693,0,0,0-1.187-3.883,4.266,4.266,0,0,0-2.766-1.575,9.551,9.551,0,0,0-4.235.969,28.226,28.226,0,0,1-3.594,1.332,1.248,1.248,0,0,1-1.277-.394,1.539,1.539,0,0,1-.383-1.359A3.37,3.37,0,0,1,34.1,28.832l1.833-2.674a5.067,5.067,0,0,0-3.882-1.152,7.168,7.168,0,0,0-3.83,1.844,5.874,5.874,0,0,0-2.175,3.793,4.425,4.425,0,0,0,1.089,3.536,4.032,4.032,0,0,0,2.717,1.428,8.576,8.576,0,0,0,4.09-.97,15.938,15.938,0,0,1,3.6-1.306,1.769,1.769,0,0,1,1.609.645A1.59,1.59,0,0,1,39.5,35.6a4.2,4.2,0,0,1-1.311,1.815,2.808,2.808,0,0,1-2.316.875,6.1,6.1,0,0,1-2.647-1.457L31.165,39.65a6.657,6.657,0,0,0,4.552,1.95ZM57,27.543,50.24,15.51,54.53,13.1l-1.469-2.616-11.4,6.4L43.13,19.5l4.29-2.409,6.757,12.033L57,27.543Zm22.876-8.924L69.026,4.436,66.4,5.271l-.7,17.85,3.065-.973.08-2.921,6.108-1.939,1.75,2.34,3.175-1.009ZM69.129,9.439,73.261,15l-4.369,1.387.191-6.935.046-.013Zm21.818,7.6-.49-6.221,2.488-.2,3.864,5.954L100.3,16.3l-4.08-6.251a4.875,4.875,0,0,0,3.156-5.16,5.011,5.011,0,0,0-1.9-3.762A5.988,5.988,0,0,0,93.189,0L86.394.541l1.321,16.748,3.232-.25ZM89.857,3.21l3.3-.261q2.751-.216,2.942,2.2.189,2.393-2.562,2.609l-3.3.261-.38-4.809Zm21.824,13.943.757-5.2,1.474-1.459.047.007,4.016,7.57,3.871.563L116.481,8.369l7.29-6.433-3.728-.543-6.907,6.125-.047-.007L114.105.529,110.9.062l-2.42,16.625,3.2.466Zm23.936,6.174,2.554-6.6L146.8,9.644l-3.246-1.255-5.842,5.125-.045-.017L136.8,5.774l-3.245-1.255,1.619,11.048-2.554,6.6ZM157.7,19.285l1.579-2.579-3.049-1.867-1.78,2.906,1,.614a2.323,2.323,0,0,1-.753.862,1.438,1.438,0,0,1-1.077-.125l-.852,1.392q3.188,1.642,4.929-1.2l0,0Zm2.1,16.961a6.887,6.887,0,0,0,2.455,4.191,6.591,6.591,0,0,0,4.327,1.889,4.694,4.694,0,0,0,3.712-1.646,4.263,4.263,0,0,0,1.23-2.936,9.538,9.538,0,0,0-1.472-4.088,28.244,28.244,0,0,1-1.755-3.407,1.246,1.246,0,0,1,.238-1.315,1.538,1.538,0,0,1,1.3-.543,3.368,3.368,0,0,1,2.444,4.71l2.875,1.5a5.065,5.065,0,0,0,.676-3.991,7.176,7.176,0,0,0-2.292-3.581,5.877,5.877,0,0,0-4.027-1.7,4.427,4.427,0,0,0-3.38,1.507,4.029,4.029,0,0,0-1.089,2.869,8.571,8.571,0,0,0,1.455,3.944,15.9,15.9,0,0,1,1.73,3.417,1.771,1.771,0,0,1-.446,1.675,1.593,1.593,0,0,1-1.575.543,4.2,4.2,0,0,1-1.959-1.084A2.8,2.8,0,0,1,163.1,36a6.114,6.114,0,0,1,1.127-2.8l-3.041-1.709a6.661,6.661,0,0,0-1.387,4.755ZM71.173,210.722a3.423,3.423,0,0,1-2.311-2.22,7.539,7.539,0,0,1,.214-4.678,6.346,6.346,0,0,1,2.251-3.565,3.481,3.481,0,0,1,3.1-.588,2.743,2.743,0,0,1,1.889,1.57,4.98,4.98,0,0,1,.259,2.691l3.227.425a6.518,6.518,0,0,0-.784-4.772,6.37,6.37,0,0,0-3.767-2.8,6.83,6.83,0,0,0-5.552.716,8.682,8.682,0,0,0-3.824,5.379q-1.281,4.352.03,7.077a6.773,6.773,0,0,0,4.42,3.641,6.2,6.2,0,0,0,4.8-.337,7.681,7.681,0,0,0,3.351-3.817l-3.013-1.663q-1.577,3.739-4.293,2.939ZM95.864,217.6l.294-2.986-6.9-.679L90.609,200.2l-3.224-.317L85.74,216.606Zm9.1-1.171a7.81,7.81,0,0,0,9.174-.741,5.427,5.427,0,0,0,1.373-4.458l-.913-11.291-3.229.261.9,11.2a2.891,2.891,0,0,1-.617,2.193,3.12,3.12,0,0,1-2.233.975,3.048,3.048,0,0,1-2.349-.617,2.986,2.986,0,0,1-.953-2.1l-.9-11.148-3.23.262.913,11.291a5.442,5.442,0,0,0,2.06,4.173Zm26.717-3.332q3.225-.939,4.243-2.685a5.142,5.142,0,0,0,.333-4.1,4.117,4.117,0,0,0-1.324-2.1,3.99,3.99,0,0,0-2.1-.9l-.007-.023a3.488,3.488,0,0,0,.86-3.574,4.282,4.282,0,0,0-2.2-2.7,4.953,4.953,0,0,0-3.811-.254l-6.844,1.992,4.693,16.131,6.157-1.787Zm-5.107-6.213,3.779-1.1a2.369,2.369,0,0,1,1.759.076,2.067,2.067,0,0,1,1.034,1.361,2,2,0,0,1-1.589,2.787L127.8,211.1Zm-1.793-6.158,3.341-.972a2.3,2.3,0,0,1,1.632.025,1.811,1.811,0,0,1,.933,1.228,1.692,1.692,0,0,1-.156,1.483,2.351,2.351,0,0,1-1.356.882l-3.341.972-1.053-3.618Z" fill="#fff" fill-rule="evenodd"/>
      <path id="Path_4" data-name="Path 4" d="M47.465,193.07A100.537,100.537,0,0,1,18.079,51.2l2.559,1.574A97.536,97.536,0,0,0,48.875,190.412v.1l-1.41,2.562Zm106.945-.2A100.537,100.537,0,0,0,183.8,51l-2.559,1.574A97.534,97.534,0,0,1,153,190.211v.1Z" fill="#fff"/>
    </g>
  </g>
</svg>
