<svg xmlns="http://www.w3.org/2000/svg" width="202" height="218" viewBox="-5 0 220 225">
    <g fill="#202d3c" fill-rule="evenodd">
        <g fill-rule="nonzero">
            <path d="M52.5 91.5V93c0 18.502 14.998 33.5 33.5 33.5h63.5V125c0-18.502-14.998-33.5-33.5-33.5H52.5zm63.5-3c20.158 0 36.5 16.342 36.5 36.5v4.5H86c-20.158 0-36.5-16.342-36.5-36.5v-4.5H116z"/>
            <path d="M105.5 52.5H82.65c-16.651 0-30.15 13.499-30.15 30.15v5.85h53v-36zm3-3v42h-59v-8.85c0-18.308 14.842-33.15 33.15-33.15h25.85zM96.5 165.5h22.85c16.651 0 30.15-13.499 30.15-30.15v-5.85h-53v36zm56-39v8.85c0 18.308-14.842 33.15-33.15 33.15H93.5v-42h59z"/>
        </g>
        <path d="M35.717 41.6a6.884 6.884 0 0 0 4.456-1.932 6.594 6.594 0 0 0 2.4-4.068 4.693 4.693 0 0 0-1.187-3.883 4.266 4.266 0 0 0-2.766-1.575 9.551 9.551 0 0 0-4.235.969c-1.167.525-2.367.97-3.594 1.332a1.248 1.248 0 0 1-1.277-.394 1.539 1.539 0 0 1-.383-1.359 3.37 3.37 0 0 1 4.971-1.858l1.833-2.674a5.067 5.067 0 0 0-3.882-1.152 7.168 7.168 0 0 0-3.83 1.844 5.874 5.874 0 0 0-2.175 3.793 4.425 4.425 0 0 0 1.089 3.536 4.032 4.032 0 0 0 2.717 1.428 8.576 8.576 0 0 0 4.09-.97 15.938 15.938 0 0 1 3.6-1.306 1.769 1.769 0 0 1 1.609.645 1.59 1.59 0 0 1 .349 1.628 4.2 4.2 0 0 1-1.311 1.815 2.808 2.808 0 0 1-2.316.875 6.1 6.1 0 0 1-2.647-1.457l-2.063 2.813a6.657 6.657 0 0 0 4.552 1.95zm21.28-14.057L50.24 15.51l4.29-2.408-1.469-2.616-11.4 6.4 1.469 2.616 4.29-2.409 6.757 12.033 2.82-1.583zm22.876-8.924L69.026 4.436l-2.631.835-.7 17.85 3.065-.973.08-2.921 6.108-1.939 1.75 2.34 3.175-1.009zm-10.744-9.18L73.261 15l-4.369 1.387.191-6.935.046-.013zm21.818 7.6l-.49-6.221 2.488-.2 3.864 5.954 3.493-.275-4.08-6.251a4.875 4.875 0 0 0 3.156-5.16 5.011 5.011 0 0 0-1.9-3.762A5.988 5.988 0 0 0 93.189.005l-6.795.536 1.321 16.748 3.232-.25zM89.857 3.21l3.3-.261c1.834-.144 2.815.59 2.942 2.2.126 1.595-.728 2.464-2.562 2.609l-3.3.261-.38-4.809zm21.824 13.943l.757-5.2 1.474-1.459.047.007 4.016 7.57 3.871.563-5.365-10.265 7.29-6.433-3.728-.543-6.907 6.125-.047-.007 1.016-6.982-3.206-.467-2.42 16.625 3.202.466zm23.936 6.174l2.554-6.6 8.633-7.083-3.246-1.255-5.842 5.125-.045-.017-.873-7.723-3.245-1.255 1.619 11.048-2.554 6.6 2.999 1.16zm22.084-4.042l1.579-2.579-3.049-1.867-1.78 2.906 1 .614a2.323 2.323 0 0 1-.753.862c-.362.1-.748.056-1.077-.125l-.852 1.392c2.125 1.095 3.768.695 4.929-1.2l.003-.003zm2.1 16.961a6.887 6.887 0 0 0 2.455 4.191 6.591 6.591 0 0 0 4.327 1.889 4.694 4.694 0 0 0 3.712-1.646 4.263 4.263 0 0 0 1.23-2.936 9.538 9.538 0 0 0-1.472-4.088 28.24 28.24 0 0 1-1.755-3.407c-.182-.447-.09-.96.238-1.315.32-.38.804-.583 1.3-.543a3.368 3.368 0 0 1 2.444 4.71l2.875 1.5a5.065 5.065 0 0 0 .676-3.991 7.176 7.176 0 0 0-2.292-3.581 5.877 5.877 0 0 0-4.027-1.7 4.427 4.427 0 0 0-3.38 1.507 4.029 4.029 0 0 0-1.089 2.869c.15 1.415.65 2.77 1.455 3.944a15.9 15.9 0 0 1 1.73 3.417 1.771 1.771 0 0 1-.446 1.675c-.381.463-.99.673-1.575.543a4.2 4.2 0 0 1-1.959-1.084 2.8 2.8 0 0 1-1.144-2.2 6.114 6.114 0 0 1 1.127-2.8l-3.041-1.709a6.661 6.661 0 0 0-1.387 4.755h-.002zM71.173 210.722a3.423 3.423 0 0 1-2.311-2.22 7.539 7.539 0 0 1 .214-4.678 6.346 6.346 0 0 1 2.251-3.565 3.481 3.481 0 0 1 3.1-.588 2.743 2.743 0 0 1 1.889 1.57 4.98 4.98 0 0 1 .259 2.691l3.227.425c.36-1.632.08-3.34-.784-4.772a6.37 6.37 0 0 0-3.767-2.8 6.83 6.83 0 0 0-5.552.716 8.682 8.682 0 0 0-3.824 5.379c-.854 2.901-.844 5.26.03 7.077a6.773 6.773 0 0 0 4.42 3.641 6.2 6.2 0 0 0 4.8-.337 7.681 7.681 0 0 0 3.351-3.817l-3.013-1.663c-1.051 2.493-2.482 3.473-4.293 2.939l.003.002zm24.691 6.881l.294-2.986-6.9-.679 1.351-13.734-3.224-.317-1.645 16.719 10.124.997zm9.1-1.171a7.81 7.81 0 0 0 9.174-.741 5.427 5.427 0 0 0 1.373-4.458l-.913-11.291-3.229.261.905 11.2a2.891 2.891 0 0 1-.617 2.193 3.12 3.12 0 0 1-2.233.975 3.048 3.048 0 0 1-2.349-.617 2.986 2.986 0 0 1-.953-2.1l-.9-11.148-3.23.262.913 11.291a5.442 5.442 0 0 0 2.06 4.173h-.001zm26.717-3.332c2.15-.626 3.565-1.521 4.243-2.685a5.142 5.142 0 0 0 .333-4.1 4.117 4.117 0 0 0-1.324-2.1 3.99 3.99 0 0 0-2.1-.9l-.007-.023a3.488 3.488 0 0 0 .86-3.574 4.282 4.282 0 0 0-2.2-2.7 4.953 4.953 0 0 0-3.811-.254l-6.844 1.992 4.693 16.131 6.157-1.787zm-5.107-6.213l3.779-1.1a2.369 2.369 0 0 1 1.759.076c.525.283.902.78 1.034 1.361a2.005 2.005 0 0 1-1.589 2.787l-3.756 1.089-1.227-4.213zm-1.793-6.158l3.341-.972a2.3 2.3 0 0 1 1.632.025c.479.25.82.7.933 1.228.18.492.123 1.04-.156 1.483a2.351 2.351 0 0 1-1.356.882l-3.341.972-1.053-3.618z"/>
        <path fill-rule="nonzero" d="M47.465 193.07C19.246 175.275.5 143.826.5 108c0-21.078 6.49-40.641 17.579-56.8l2.559 1.574C9.828 68.474 3.5 87.498 3.5 108c0 34.677 18.103 65.126 45.375 82.412v.096l-1.41 2.562zM154.41 192.87c28.219-17.796 46.965-49.244 46.965-85.07 0-21.079-6.49-40.642-17.579-56.8l-2.559 1.574c10.81 15.7 17.138 34.723 17.138 55.226 0 34.677-18.103 65.126-45.375 82.411v.096l1.41 2.563z"/>
    </g>
</svg>
